<svg width="242" height="38" viewBox="0 0 242 38" fill="none" xmlns="http://www.w3.org/2000/svg">
<path d="M0 18.6212C0 6.24035 8.87244 0.050293 17.1952 0.050293C23.5917 0.050293 27.7182 3.55797 28.6133 5.55248H28.8191V0.73816H38.0355V36.5043H28.8191V31.6899H28.6133C27.7182 33.6844 23.5917 37.1921 17.1952 37.1921C8.87244 37.1921 0 31.0021 0 18.6212ZM29.0256 18.6212C29.0256 11.8807 24.2113 8.30395 19.0523 8.30395C13.8933 8.30395 9.07895 11.9498 9.07895 18.6212C9.07895 25.2926 13.894 28.9385 19.0523 28.9385C24.2105 28.9385 29.0256 25.3617 29.0256 18.6212Z" fill="white"/>
<path d="M41.6096 27.1505L48.969 25.1582C49.6568 27.4974 51.3765 29.9042 54.8842 29.9042C57.2235 29.9042 59.4899 28.7349 59.4899 26.19C59.4899 24.471 58.3897 23.2327 55.5691 22.2009L51.1737 20.5474C45.2585 18.4147 42.7796 14.6322 42.7796 10.2962C42.7796 3.9019 48.4193 0.050293 55.1598 0.050293C61.6226 0.050293 66.3708 3.69539 67.5408 9.19833L60.3181 11.0554C59.3524 8.16652 57.4953 7.27289 55.5721 7.27289C53.1653 7.27289 51.7205 8.64788 51.7205 10.3676C51.7205 11.8807 52.6119 13.1903 55.4347 14.1508L59.4245 15.664C63.8266 17.2455 68.641 19.8595 68.641 26.187C68.641 33.3405 62.5192 37.1921 55.0224 37.1921C47.9379 37.1921 42.7098 33.7535 41.6096 27.1505Z" fill="white"/>
<path d="M81.7066 0.73822H72.4902V36.5044H81.7066V0.73822Z" fill="white"/>
<path d="M85.625 18.6212C85.625 6.24035 94.4974 0.050293 102.82 0.050293C109.217 0.050293 113.343 3.55797 114.238 5.55248H114.444V0.73816H123.66V36.5043H114.444V31.6899H114.239C113.348 33.6844 109.218 37.1921 102.822 37.1921C94.4974 37.1921 85.625 31.0021 85.625 18.6212ZM114.651 18.6212C114.651 11.8807 109.836 8.30395 104.677 8.30395C99.5183 8.30395 94.7025 11.9498 94.7025 18.6212C94.7025 25.2926 99.5175 28.9385 104.676 28.9385C109.834 28.9385 114.651 25.3617 114.651 18.6212Z" fill="white"/>
<path d="M146.149 37.1921C156.405 37.1921 164.72 28.8776 164.72 18.6212C164.72 8.36477 156.405 0.050293 146.149 0.050293C135.893 0.050293 127.578 8.36477 127.578 18.6212C127.578 28.8776 135.893 37.1921 146.149 37.1921Z" fill="#FF6D00"/>
<path d="M202.34 15.4575V36.5043H193.124V16.9677C193.124 11.7403 190.301 8.30098 185.489 8.30098C180.743 8.30098 177.855 11.7403 177.855 16.9677V36.5043H168.639V0.73816H177.855V5.62157C179.85 2.45783 183.426 0.050293 188.791 0.050293C196.15 0.050293 202.34 4.58977 202.34 15.4575Z" fill="#FF6D00"/>
<path d="M241.75 22.198H214.994C216.301 27.0814 220.565 29.6263 225.93 29.6263C229.438 29.6263 232.533 28.6606 235.147 26.3935L239.342 30.8639C236.385 34.5781 231.226 37.1921 224.898 37.1921C215.063 37.1921 206.259 30.52 206.259 18.6212C206.259 6.58726 215.2 0.050293 224.348 0.050293C233.427 0.050293 243.744 6.44686 241.75 22.198ZM214.859 15.4575H233.568C233.018 10.3676 228.753 7.82259 224.42 7.82259C220.152 7.82259 216.025 10.3014 214.856 15.4575H214.859Z" fill="#FF6D00"/>
</svg>
